HIERARCHY
ROOT hip
{
  OFFSET 0 90.174 2.4664
  CHANNELS 6 Xposition Yposition Zposition Zrotation Xrotation Yrotation
  JOINT abdomen
  {
    OFFSET 0 -1.186 -1.5018
    CHANNELS 6 Xposition Yposition Zposition Zrotation Xrotation Yrotation
    JOINT abdomen2
    {
      OFFSET 0 9.964 0.2134
      CHANNELS 6 Xposition Yposition Zposition Zrotation Xrotation Yrotation
      JOINT chest
      {
        OFFSET 0 13.134 -3.2573
        CHANNELS 6 Xposition Yposition Zposition Zrotation Xrotation Yrotation
        JOINT neck
        {
          OFFSET 0 20.686 -1.6905
          CHANNELS 6 Xposition Yposition Zposition Zrotation Xrotation Yrotation
          JOINT head
          {
            OFFSET 0 7.238 -0.1237
            CHANNELS 6 Xposition Yposition Zposition Zrotation Xrotation Yrotation
            End Site
            {
              OFFSET 0 0 0
            }
          }
        }
        JOINT lCollar
        {
          OFFSET 1.7069 20.075 5.0056
          CHANNELS 6 Xposition Yposition Zposition Zrotation Xrotation Yrotation
          JOINT lShldr
          {
            OFFSET 13.6458 -0.047 -4.849
            CHANNELS 6 Xposition Yposition Zposition Zrotation Xrotation Yrotation
            JOINT lForeArm
            {
              OFFSET 28.3255 -0.9759 2.2888
              CHANNELS 6 Xposition Yposition Zposition Zrotation Xrotation Yrotation
              JOINT lHand
              {
                OFFSET 22.1583 -0.53 10.8316
                CHANNELS 6 Xposition Yposition Zposition Zrotation Xrotation Yrotation
                JOINT lThumb1
                {
                  OFFSET 0.786 0.112 2.5817
                  CHANNELS 6 Xposition Yposition Zposition Zrotation Xrotation Yrotation
                  JOINT lThumb2
                  {
                    OFFSET 0.3601 -0.878 4.2331
                    CHANNELS 6 Xposition Yposition Zposition Zrotation Xrotation Yrotation
                    JOINT lThumb2_End
                    {
                      OFFSET 1.8127 -1.216 2.2227
                      CHANNELS 6 Xposition Yposition Zposition Zrotation Xrotation Yrotation
                      End Site
                      {
                        OFFSET 0.0181 -0.0122 0.0222
                      }
                    }
                  }
                }
                JOINT lCarpal1
                {
                  OFFSET 0.9571 1.114 1.7695
                  CHANNELS 6 Xposition Yposition Zposition Zrotation Xrotation Yrotation
                  JOINT lIndex1
                  {
                    OFFSET 4.1246 0.487 4.1451
                    CHANNELS 6 Xposition Yposition Zposition Zrotation Xrotation Yrotation
                    JOINT lIndex2
                    {
                      OFFSET 3.4052 -1.454 2.7682
                      CHANNELS 6 Xposition Yposition Zposition Zrotation Xrotation Yrotation
                      JOINT lIndex2_End
                      {
                        OFFSET 1.4531 -1.795 1.2713
                        CHANNELS 6 Xposition Yposition Zposition Zrotation Xrotation Yrotation
                        End Site
                        {
                          OFFSET 0.0145 -0.0179 0.0127
                        }
                      }
                    }
                  }
                  JOINT lMid1
                  {
                    OFFSET 5.6954 0.21 2.1184
                    CHANNELS 6 Xposition Yposition Zposition Zrotation Xrotation Yrotation
                    JOINT lMid2
                    {
                      OFFSET 3.9766 -1.54 2.3863
                      CHANNELS 6 Xposition Yposition Zposition Zrotation Xrotation Yrotation
                      JOINT lMid2_End
                      {
                        OFFSET 1.4042 -1.926 1.125
                        CHANNELS 6 Xposition Yposition Zposition Zrotation Xrotation Yrotation
                        End Site
                        {
                          OFFSET 0.014 -0.0193 0.0113
                        }
                      }
                    }
                  }
                }
                JOINT lCarpal2
                {
                  OFFSET 2.0956 0.66 -0.3894
                  CHANNELS 6 Xposition Yposition Zposition Zrotation Xrotation Yrotation
                  JOINT lRing1
                  {
                    OFFSET 5.0395 -0.09 2.4971
                    CHANNELS 6 Xposition Yposition Zposition Zrotation Xrotation Yrotation
                    JOINT lRing2
                    {
                      OFFSET 3.7921 -1.552 1.4806
                      CHANNELS 6 Xposition Yposition Zposition Zrotation Xrotation Yrotation
                      JOINT lRing2_End
                      {
                        OFFSET 1.4655 -1.808 0.9609
                        CHANNELS 6 Xposition Yposition Zposition Zrotation Xrotation Yrotation
                        End Site
                        {
                          OFFSET 0.0147 -0.0181 0.0096
                        }
                      }
                    }
                  }
                  JOINT lPinky1
                  {
                    OFFSET 4.9141 -1.269 0.3591
                    CHANNELS 6 Xposition Yposition Zposition Zrotation Xrotation Yrotation
                    JOINT lPinky2
                    {
                      OFFSET 3.1477 -1.685 0.8462
                      CHANNELS 6 Xposition Yposition Zposition Zrotation Xrotation Yrotation
                      JOINT lPinky2_End
                      {
                        OFFSET 0.8055 -1.585 0.7955
                        CHANNELS 6 Xposition Yposition Zposition Zrotation Xrotation Yrotation
                        End Site
                        {
                          OFFSET 0.0081 -0.0158 0.008
                        }
                      }
                    }
                  }
                }
              }
            }
          }
        }
        JOINT rCollar
        {
          OFFSET -1.7069 20.075 5.0056
          CHANNELS 6 Xposition Yposition Zposition Zrotation Xrotation Yrotation
          JOINT rShldr
          {
            OFFSET -13.6458 -0.047 -4.849
            CHANNELS 6 Xposition Yposition Zposition Zrotation Xrotation Yrotation
            JOINT rForeArm
            {
              OFFSET -28.3255 -0.9759 2.2888
              CHANNELS 6 Xposition Yposition Zposition Zrotation Xrotation Yrotation
              JOINT rHand
              {
                OFFSET -22.1583 -0.53 10.8316
                CHANNELS 6 Xposition Yposition Zposition Zrotation Xrotation Yrotation
                JOINT rThumb1
                {
                  OFFSET -0.786 0.112 2.5817
                  CHANNELS 6 Xposition Yposition Zposition Zrotation Xrotation Yrotation
                  JOINT rThumb2
                  {
                    OFFSET -0.3601 -0.878 4.2331
                    CHANNELS 6 Xposition Yposition Zposition Zrotation Xrotation Yrotation
                    JOINT rThumb2_End
                    {
                      OFFSET -1.8127 -1.216 2.2227
                      CHANNELS 6 Xposition Yposition Zposition Zrotation Xrotation Yrotation
                      End Site
                      {
                        OFFSET -0.0181 -0.0122 0.0222
                      }
                    }
                  }
                }
                JOINT rCarpal1
                {
                  OFFSET -0.9571 1.114 1.7695
                  CHANNELS 6 Xposition Yposition Zposition Zrotation Xrotation Yrotation
                  JOINT rIndex1
                  {
                    OFFSET -4.1246 0.487 4.1451
                    CHANNELS 6 Xposition Yposition Zposition Zrotation Xrotation Yrotation
                    JOINT rIndex2
                    {
                      OFFSET -3.4052 -1.454 2.7682
                      CHANNELS 6 Xposition Yposition Zposition Zrotation Xrotation Yrotation
                      JOINT rIndex2_End
                      {
                        OFFSET -1.4531 -1.795 1.2713
                        CHANNELS 6 Xposition Yposition Zposition Zrotation Xrotation Yrotation
                        End Site
                        {
                          OFFSET -0.0145 -0.018 0.0127
                        }
                      }
                    }
                  }
                  JOINT rMid1
                  {
                    OFFSET -5.6954 0.21 2.1184
                    CHANNELS 6 Xposition Yposition Zposition Zrotation Xrotation Yrotation
                    JOINT rMid2
                    {
                      OFFSET -3.9766 -1.54 2.3863
                      CHANNELS 6 Xposition Yposition Zposition Zrotation Xrotation Yrotation
                      JOINT rMid2_End
                      {
                        OFFSET -1.4042 -1.926 1.125
                        CHANNELS 6 Xposition Yposition Zposition Zrotation Xrotation Yrotation
                        End Site
                        {
                          OFFSET -0.014 -0.0193 0.0113
                        }
                      }
                    }
                  }
                }
                JOINT rCarpal2
                {
                  OFFSET -2.0956 0.66 -0.3894
                  CHANNELS 6 Xposition Yposition Zposition Zrotation Xrotation Yrotation
                  JOINT rRing1
                  {
                    OFFSET -5.0395 -0.09 2.4971
                    CHANNELS 6 Xposition Yposition Zposition Zrotation Xrotation Yrotation
                    JOINT rRing2
                    {
                      OFFSET -3.7921 -1.552 1.4806
                      CHANNELS 6 Xposition Yposition Zposition Zrotation Xrotation Yrotation
                      JOINT rRing2_End
                      {
                        OFFSET -1.4655 -1.808 0.9609
                        CHANNELS 6 Xposition Yposition Zposition Zrotation Xrotation Yrotation
                        End Site
                        {
                          OFFSET -0.0147 -0.0181 0.0096
                        }
                      }
                    }
                  }
                  JOINT rPinky1
                  {
                    OFFSET -4.9141 -1.269 0.3592
                    CHANNELS 6 Xposition Yposition Zposition Zrotation Xrotation Yrotation
                    JOINT rPinky2
                    {
                      OFFSET -3.1477 -1.685 0.8462
                      CHANNELS 6 Xposition Yposition Zposition Zrotation Xrotation Yrotation
                      JOINT rPinky2_End
                      {
                        OFFSET -0.8055 -1.585 0.7955
                        CHANNELS 6 Xposition Yposition Zposition Zrotation Xrotation Yrotation
                        End Site
                        {
                          OFFSET -0.0081 -0.0158 0.008
                        }
                      }
                    }
                  }
                }
              }
            }
          }
        }
      }
    }
  }
  JOINT lThigh
  {
    OFFSET 8.367 -8.2066 0.5982
    CHANNELS 6 Xposition Yposition Zposition Zrotation Xrotation Yrotation
    JOINT lShin
    {
      OFFSET 2.1923 -43.463 -0.4932
      CHANNELS 6 Xposition Yposition Zposition Zrotation Xrotation Yrotation
      JOINT lFoot
      {
        OFFSET 0.7333 -45.8593 -2.6451
        CHANNELS 6 Xposition Yposition Zposition Zrotation Xrotation Yrotation
        End Site
        {
          OFFSET 2.6618 -4.2699 12.3931
        }
      }
    }
  }
  JOINT rThigh
  {
    OFFSET -8.367 -8.2066 0.5982
    CHANNELS 6 Xposition Yposition Zposition Zrotation Xrotation Yrotation
    JOINT rShin
    {
      OFFSET -2.1923 -43.463 -0.4931
      CHANNELS 6 Xposition Yposition Zposition Zrotation Xrotation Yrotation
      JOINT rFoot
      {
        OFFSET -0.7333 -45.8593 -2.6451
        CHANNELS 6 Xposition Yposition Zposition Zrotation Xrotation Yrotation
        End Site
        {
          OFFSET -2.6618 -4.2699 12.3931
        }
      }
    }
  }
}
MOTION
Frames:	4
Frame Time:	0.0333333
0 90.174 2.4664 0 0 -0 0 -1.186 -1.5018 0 0 -0 0 9.964 0.2134 0 0 -0 0 13.134 -3.2573 0 0 -0 0 20.686 -1.6905 0 0 -0 0 7.238 -0.1237 0 0 -0 1.7069 20.075 5.0056 0 0 -0 13.6458 -0.047 -4.849 1.66051 0.0835086 5.75766 28.3255 -0.9759 2.2888 -0.0175111 0.895433 15.7816 22.1583 -0.53 10.8316 7.95139e-016 -1.98785e-016 -0 0.786 0.112 2.5817 5.46658e-016 -3.97569e-016 -0 0.3601 -0.878 4.2331 5.96354e-016 0 -0 1.8127 -1.216 2.2227 3.97569e-016 1.98785e-016 9.54166e-015 0.9571 1.114 1.7695 1.49089e-016 -3.97569e-016 -0 4.1246 0.487 4.1451 6.4605e-016 0 3.18055e-015 3.4052 -1.454 2.7682 5.96354e-016 0 3.18055e-015 1.4531 -1.795 1.2713 8.94531e-016 -1.98785e-016 6.36111e-015 5.6954 0.21 2.1184 6.4605e-016 0 3.18055e-015 3.9766 -1.54 2.3863 5.96354e-016 0 3.18055e-015 1.4042 -1.926 1.125 8.94531e-016 -1.98785e-016 6.36111e-015 2.0956 0.66 -0.3894 1.49089e-016 -3.97569e-016 -0 5.0395 -0.09 2.4971 6.4605e-016 0 3.18055e-015 3.7921 -1.552 1.4806 5.96354e-016 0 3.18055e-015 1.4655 -1.808 0.9609 8.94531e-016 -1.98785e-016 6.36111e-015 4.9141 -1.269 0.3591 6.4605e-016 0 3.18055e-015 3.1477 -1.685 0.8462 5.96354e-016 0 3.18055e-015 0.8055 -1.585 0.7955 8.94531e-016 -1.98785e-016 6.36111e-015 -1.7069 20.075 5.0056 0 0 -0 -13.6458 -0.047 -4.849 -1.4496 0.0636048 -5.0245 -28.3255 -0.9759 2.2888 -1.74811 1.20616 -16.8394 -22.1583 -0.53 10.8316 -1.19271e-015 1.98785e-016 -3.18055e-015 -0.786 0.112 2.5817 -3.97569e-016 1.98785e-016 -3.18055e-015 -0.3601 -0.878 4.2331 -2.98177e-016 1.98785e-016 -3.18055e-015 -1.8127 -1.216 2.2227 -2.98177e-016 3.97569e-016 -0 -0.9571 1.114 1.7695 4.96962e-016 0 -6.36111e-015 -4.1246 0.487 4.1451 -9.93923e-017 3.97569e-016 -0 -3.4052 -1.454 2.7682 -8.94531e-016 5.96354e-016 -0 -1.4531 -1.795 1.2713 -3.97569e-016 3.97569e-016 -0 -5.6954 0.21 2.1184 -9.93923e-017 3.97569e-016 -0 -3.9766 -1.54 2.3863 -8.94531e-016 5.96354e-016 -0 -1.4042 -1.926 1.125 -3.97569e-016 3.97569e-016 -0 -2.0956 0.66 -0.3894 4.96962e-016 0 -6.36111e-015 -5.0395 -0.09 2.4971 -9.93923e-017 3.97569e-016 -0 -3.7921 -1.552 1.4806 -8.94531e-016 5.96354e-016 -0 -1.4655 -1.808 0.9609 -3.97569e-016 3.97569e-016 -0 -4.9141 -1.269 0.3592 -9.93923e-017 3.97569e-016 -0 -3.1477 -1.685 0.8462 -8.94531e-016 5.96354e-016 -0 -0.8055 -1.585 0.7955 -3.97569e-016 3.97569e-016 -0 8.367 -8.2066 0.5982 -4.66115 -1.03232 0.120763 2.1923 -43.463 -0.4932 0.00990601 1.55097 0.177175 0.7333 -45.8593 -2.6451 4.65196 -0.54114 -0.255042 -8.367 -8.2066 0.5982 4.66115 -1.03222 -0.120763 -2.1923 -43.463 -0.4931 -0.00990459 1.5509 -0.177176 -0.7333 -45.8593 -2.6451 -4.65196 -0.541171 0.255041 
42.2907 89.6051 30.0537 0 18.9975 -0 0 -1.186 -1.5018 -0.242908 1.86393 -0.192428 0 9.964 0.2134 -0.47993 3.72866 -0.377243 0 13.134 -3.2573 -0.47993 3.72866 -0.377243 -7.10543e-015 20.686 -1.6905 4.41121e-006 -26.0016 2.36958e-006 -7.10543e-015 7.238 -0.1237 5.45508e-007 17.9984 -1.32138e-007 1.7069 20.075 5.0056 6.45555 10.2391 4.52714 13.6458 -0.047 -4.849 -75.1695 -1.95806 7.12062 28.3255 -0.9759 2.2888 -28.2327 7.69075 21.8096 22.1583 -0.53 10.8316 5.04702 1.89724 -24.6481 0.786 0.112 2.5817 -3.97569e-016 -1.19271e-015 -0 0.3601 -0.878 4.2331 5.96354e-016 -9.93923e-016 -0 1.8127 -1.216 2.2227 7.95139e-016 -9.93923e-016 3.18055e-015 0.9571 1.114 1.7695 3.97569e-016 -3.97569e-016 -0 4.1246 0.487 4.1451 9.93923e-016 0 -0 3.4052 -1.454 2.7682 2.98177e-016 -3.97569e-016 3.18055e-015 1.4531 -1.795 1.2713 4.96962e-016 -9.93923e-016 -0 5.6954 0.21 2.1184 9.93923e-016 0 -0 3.9766 -1.54 2.3863 2.98177e-016 -3.97569e-016 3.18055e-015 1.4042 -1.926 1.125 4.96962e-016 -9.93923e-016 -0 2.0956 0.66 -0.3894 3.97569e-016 -3.97569e-016 -0 5.0395 -0.09 2.4971 9.93923e-016 0 -0 3.7921 -1.552 1.4806 2.98177e-016 -3.97569e-016 3.18055e-015 1.4655 -1.808 0.9609 4.96962e-016 -9.93923e-016 -0 4.9141 -1.269 0.3591 9.93923e-016 0 -0 3.1477 -1.685 0.8462 2.98177e-016 -3.97569e-016 3.18055e-015 0.8055 -1.585 0.7955 4.96962e-016 -9.93923e-016 -0 -1.7069 20.075 5.0056 3.71567 10.8379 -8.60684 -13.6458 -0.047 -4.849 73.014 -1.68243 -9.54298 -28.3255 -0.9759 2.2888 10.7123 4.4329 -21.3918 -22.1583 -0.53 10.8316 3.6306 5.59649 19.3372 -0.786 0.112 2.5817 -7.95139e-015 -7.15625e-015 -6.36111e-015 -0.3601 -0.878 4.2331 9.04226e-007 -2.21651e-006 -2.14767e-006 -1.8127 -1.216 2.2227 9.04225e-007 -2.21651e-006 -2.14767e-006 -0.9571 1.114 1.7695 8.82781e-032 7.95139e-016 -6.36111e-015 -4.1246 0.487 4.1451 -5.56597e-015 -7.95139e-015 -9.54166e-015 -3.4052 -1.454 2.7682 9.04226e-007 -2.21651e-006 -2.14767e-006 -1.4531 -1.795 1.2713 9.04225e-007 -2.21651e-006 -2.14767e-006 -5.6954 0.21 2.1184 -5.56597e-015 -7.95139e-015 -9.54166e-015 -3.9766 -1.54 2.3863 9.04226e-007 -2.21651e-006 -2.14767e-006 -1.4042 -1.926 1.125 9.04225e-007 -2.21651e-006 -2.14767e-006 -2.0956 0.66 -0.3894 8.82781e-032 7.95139e-016 -6.36111e-015 -5.0395 -0.09 2.4971 -5.56597e-015 -7.95139e-015 -9.54166e-015 -3.7921 -1.552 1.4806 9.04226e-007 -2.21651e-006 -2.14767e-006 -1.4655 -1.808 0.9609 9.04225e-007 -2.21651e-006 -2.14767e-006 -4.9141 -1.269 0.3592 -5.56597e-015 -7.95139e-015 -9.54166e-015 -3.1477 -1.685 0.8462 9.04226e-007 -2.21651e-006 -2.14767e-006 -0.8055 -1.585 0.7955 9.04225e-007 -2.21651e-006 -2.14767e-006 8.367 -8.2066 0.5982 8.70343 -32.6232 72.3724 2.1923 -43.463 -0.4932 2.87625 8.50205 -0.754666 0.7333 -45.8593 -2.6451 5.2618 12.6205 -36.2244 -8.367 -8.2066 0.5982 3.56339 -32.5048 0.168714 -2.1923 -43.463 -0.4931 -6.62449 6.14138 0.65946 -0.7333 -45.8593 -2.6451 13.8391 6.32373 -17.9042 
42.3013 89.4269 30.036 0 18.9975 -0 0 -1.186 -1.5018 -0.242461 1.63296 -0.192751 -7.10543e-015 9.964 0.2134 -0.479716 3.26668 -0.378815 -7.10543e-015 13.134 -3.2573 -0.479716 3.26667 -0.378815 0 20.686 -1.6905 2.82837e-005 -26.0024 1.70635e-005 0 7.238 -0.1237 8.97322e-008 17.9984 -1.22276e-007 1.7069 20.075 5.0056 6.90912 11.1752 4.42726 13.6458 -0.047 -4.849 -75.1695 -1.95808 7.12062 28.3255 -0.9759 2.2888 -29.0368 7.9491 21.8342 22.1583 -0.53 10.8316 5.62811 1.95646 -24.8597 0.786 0.112 2.5817 5.96354e-016 -2.98177e-016 9.54166e-015 0.3601 -0.878 4.2331 -0 0 9.54166e-015 1.8127 -1.216 2.2227 9.93923e-017 0 1.59028e-014 0.9571 1.114 1.7695 -1.98785e-016 -8.94531e-016 9.54166e-015 4.1246 0.487 4.1451 -9.93923e-017 -2.98177e-016 9.54166e-015 3.4052 -1.454 2.7682 2.98177e-016 -4.96962e-016 1.59028e-014 1.4531 -1.795 1.2713 1.68967e-015 -1.09332e-015 9.54166e-015 5.6954 0.21 2.1184 -9.93923e-017 -2.98177e-016 9.54166e-015 3.9766 -1.54 2.3863 2.98177e-016 -4.96962e-016 1.59028e-014 1.4042 -1.926 1.125 1.68967e-015 -1.09332e-015 9.54166e-015 2.0956 0.66 -0.3894 -1.98785e-016 -8.94531e-016 9.54166e-015 5.0395 -0.09 2.4971 -9.93923e-017 -2.98177e-016 9.54166e-015 3.7921 -1.552 1.4806 2.98177e-016 -4.96962e-016 1.59028e-014 1.4655 -1.808 0.9609 1.68967e-015 -1.09332e-015 9.54166e-015 4.9141 -1.269 0.3591 -9.93923e-017 -2.98177e-016 9.54166e-015 3.1477 -1.685 0.8462 2.98177e-016 -4.96962e-016 1.59028e-014 0.8055 -1.585 0.7955 1.68967e-015 -1.09332e-015 9.54166e-015 -1.7069 20.075 5.0056 3.06113 11.8358 -8.55128 -13.6458 -0.047 -4.849 73.0218 -1.68416 -9.53343 -28.3255 -0.9759 2.2888 11.6603 4.59289 -21.4013 -22.1583 -0.53 10.8316 3.00112 5.61601 19.7504 -0.786 0.112 2.5817 -4.98406e-006 2.64443e-008 4.73599e-006 -0.3601 -0.878 4.2331 8.99093e-007 -2.22003e-006 -2.15707e-006 -1.8127 -1.216 2.2227 2.20695e-032 3.97569e-016 -3.18055e-015 -0.9571 1.114 1.7695 -1.59028e-015 0 -0 -4.1246 0.487 4.1451 -4.98406e-006 2.64443e-008 4.73599e-006 -3.4052 -1.454 2.7682 8.99093e-007 -2.22003e-006 -2.15707e-006 -1.4531 -1.795 1.2713 -7.95139e-016 -3.97569e-016 -3.18055e-015 -5.6954 0.21 2.1184 -4.98406e-006 2.64443e-008 4.73599e-006 -3.9766 -1.54 2.3863 8.99093e-007 -2.22003e-006 -2.15707e-006 -1.4042 -1.926 1.125 -7.95139e-016 -3.97569e-016 -3.18055e-015 -2.0956 0.66 -0.3894 -1.59028e-015 0 -0 -5.0395 -0.09 2.4971 -4.98406e-006 2.64443e-008 4.73599e-006 -3.7921 -1.552 1.4806 8.99093e-007 -2.22003e-006 -2.15707e-006 -1.4655 -1.808 0.9609 -7.95139e-016 -3.97569e-016 -3.18055e-015 -4.9141 -1.269 0.3592 -4.98406e-006 2.64443e-008 4.73599e-006 -3.1477 -1.685 0.8462 8.99093e-007 -2.22003e-006 -2.15707e-006 -0.8055 -1.585 0.7955 -7.95139e-016 -3.97569e-016 -3.18055e-015 8.367 -8.2066 0.5982 9.23672 -33.3252 72.342 2.1923 -43.463 -0.4932 3.46454 9.6626 -0.860805 0.7333 -45.8593 -2.6451 4.8684 12.1094 -35.7798 -8.367 -8.2066 0.5982 3.21313 -33.5745 -2.52745 -2.1923 -43.463 -0.4931 -6.95899 7.42652 0.743686 -0.7333 -45.8593 -2.6451 13.4521 6.26914 -15.2247 
42.3108 89.2487 30.0188 0 18.9975 -0 0 -1.186 -1.5018 -0.241979 1.4011 -0.193052 0 9.964 0.2134 -0.479447 2.80302 -0.380352 7.10543e-015 13.134 -3.2573 -0.479447 2.80301 -0.380352 0 20.686 -1.6905 2.62558e-006 -26.0016 2.03767e-006 0 7.238 -0.1237 -2.97034e-007 17.9984 1.33756e-008 1.7069 20.075 5.0056 7.36647 12.1119 4.31928 13.6458 -0.047 -4.849 -75.1695 -1.95807 7.12062 28.3255 -0.9759 2.2888 -29.8395 8.21783 21.8591 22.1583 -0.53 10.8316 6.20971 2.01354 -25.072 0.786 0.112 2.5817 5.96354e-016 4.47266e-016 3.18055e-015 0.3601 -0.878 4.2331 8.44835e-016 1.54058e-015 -3.18055e-015 1.8127 -1.216 2.2227 1.2424e-015 3.47873e-016 3.18055e-015 0.9571 1.114 1.7695 -1.98785e-016 1.98785e-016 3.18055e-015 4.1246 0.487 4.1451 2.18663e-015 4.47266e-016 3.18055e-015 3.4052 -1.454 2.7682 2.48481e-016 7.95139e-016 3.18055e-015 1.4531 -1.795 1.2713 7.95139e-016 2.48481e-016 3.18055e-015 5.6954 0.21 2.1184 2.18663e-015 4.47266e-016 3.18055e-015 3.9766 -1.54 2.3863 2.48481e-016 7.95139e-016 3.18055e-015 1.4042 -1.926 1.125 7.95139e-016 2.48481e-016 3.18055e-015 2.0956 0.66 -0.3894 -1.98785e-016 1.98785e-016 3.18055e-015 5.0395 -0.09 2.4971 2.18663e-015 4.47266e-016 3.18055e-015 3.7921 -1.552 1.4806 2.48481e-016 7.95139e-016 3.18055e-015 1.4655 -1.808 0.9609 7.95139e-016 2.48481e-016 3.18055e-015 4.9141 -1.269 0.3591 2.18663e-015 4.47266e-016 3.18055e-015 3.1477 -1.685 0.8462 2.48481e-016 7.95139e-016 3.18055e-015 0.8055 -1.585 0.7955 7.95139e-016 2.48481e-016 3.18055e-015 -1.7069 20.075 5.0056 2.40193 12.835 -8.48371 -13.6458 -0.047 -4.849 73.0296 -1.68587 -9.52388 -28.3255 -0.9759 2.2888 12.6078 4.76612 -21.4117 -22.1583 -0.53 10.8316 2.37114 5.63105 20.1641 -0.786 0.112 2.5817 7.95139e-016 1.19271e-015 -0 -0.3601 -0.878 4.2331 -2.13692e-007 -5.7022e-008 -4.38993e-006 -1.8127 -1.216 2.2227 -7.95139e-016 -2.38542e-015 -6.36111e-015 -0.9571 1.114 1.7695 7.95139e-016 1.98785e-015 -0 -4.1246 0.487 4.1451 2.38542e-015 -7.95139e-016 6.36111e-015 -3.4052 -1.454 2.7682 -2.13692e-007 -5.7022e-008 -4.38993e-006 -1.4531 -1.795 1.2713 7.95139e-016 -3.18055e-015 -9.54166e-015 -5.6954 0.21 2.1184 2.38542e-015 -7.95139e-016 6.36111e-015 -3.9766 -1.54 2.3863 -2.13692e-007 -5.7022e-008 -4.38993e-006 -1.4042 -1.926 1.125 7.95139e-016 -3.18055e-015 -9.54166e-015 -2.0956 0.66 -0.3894 7.95139e-016 1.98785e-015 -0 -5.0395 -0.09 2.4971 2.38542e-015 -7.95139e-016 6.36111e-015 -3.7921 -1.552 1.4806 -2.13692e-007 -5.7022e-008 -4.38993e-006 -1.4655 -1.808 0.9609 7.95139e-016 -3.18055e-015 -9.54166e-015 -4.9141 -1.269 0.3592 2.38542e-015 -7.95139e-016 6.36111e-015 -3.1477 -1.685 0.8462 -2.13692e-007 -5.7022e-008 -4.38993e-006 -0.8055 -1.585 0.7955 7.95139e-016 -3.18055e-015 -9.54166e-015 8.367 -8.2066 0.5982 9.76278 -34.0261 72.3135 2.1923 -43.463 -0.4932 4.05878 10.8041 -0.980287 0.7333 -45.8593 -2.6451 4.47863 11.6049 -35.3391 -8.367 -8.2066 0.5982 2.79185 -34.6317 -5.28888 -2.1923 -43.463 -0.4931 -7.29849 8.70171 0.835927 -0.7333 -45.8593 -2.6451 13.0669 6.20191 -12.5298 
